<?xml version="1.0" standalone="no"?>
<!DOCTYPE svg PUBLIC "-//W3C//DTD SVG 20010904//EN"
 "http://www.w3.org/TR/2001/REC-SVG-20010904/DTD/svg10.dtd">
<svg version="1.0" xmlns="http://www.w3.org/2000/svg"
 width="960.000000pt" height="640.000000pt" viewBox="0 0 960.000000 640.000000"
 preserveAspectRatio="xMidYMid meet">
<metadata>
Created by potrace 1.10, written by Peter Selinger 2001-2011
</metadata>
<g transform="translate(0.000000,640.000000) scale(0.100000,-0.100000)"
fill="#000000" stroke="none">
<path d="M8308 6226 l-98 -51 0 -145 0 -145 -55 -29 -55 -28 0 -84 c0 -46 2
-84 5 -84 3 0 28 11 55 25 l49 25 3 -353 c4 -412 4 -412 79 -411 37 0 67 12
152 59 l107 60 0 88 0 87 -40 -20 c-47 -24 -66 -25 -74 -4 -3 9 -6 150 -6 313
l0 298 60 32 60 32 0 90 0 89 -53 -30 c-30 -16 -57 -30 -60 -30 -4 0 -7 61 -7
135 0 102 -3 135 -12 134 -7 -1 -57 -24 -110 -53z"/>
<path d="M6220 6264 c-369 -56 -735 -245 -1038 -537 -115 -110 -171 -173 -240
-268 -128 -177 -243 -454 -298 -719 -74 -353 -71 -897 7 -1349 17 -97 33 -192
36 -211 l5 -35 -254 -97 c-648 -248 -1152 -421 -2008 -691 -840 -265 -1399
-378 -1875 -379 -244 -1 -380 28 -447 95 l-38 37 0 -107 c0 -132 11 -155 93
-197 169 -85 676 -71 1181 34 55 11 100 19 102 17 2 -1 17 -38 34 -82 228
-573 683 -1066 1251 -1358 525 -269 1104 -346 1687 -226 357 73 737 255 1041
497 442 352 759 840 902 1390 16 62 29 117 29 122 0 8 -155 -55 -176 -72 -6
-4 -24 -52 -39 -106 -36 -128 -130 -339 -215 -483 -180 -305 -441 -580 -733
-773 -102 -68 -289 -176 -303 -176 -3 0 -34 -13 -69 -29 -77 -36 -249 -101
-267 -101 -7 0 -42 -9 -77 -20 -196 -62 -537 -97 -767 -80 -729 54 -1374 436
-1791 1060 -99 149 -259 477 -241 495 4 4 259 79 412 121 48 13 156 46 240 73
83 27 250 81 371 120 398 127 972 320 1183 397 271 99 688 257 783 298 l37 15
21 -82 c12 -45 37 -140 56 -212 56 -208 78 -395 72 -610 -5 -200 -23 -313 -68
-450 -91 -274 -258 -497 -484 -650 -240 -161 -497 -237 -805 -238 -252 -1
-455 46 -675 156 -72 36 -222 137 -255 172 -13 14 -28 25 -34 25 -25 0 -86
-22 -86 -30 0 -15 149 -138 240 -198 241 -159 527 -256 835 -282 223 -19 472
14 668 90 385 148 707 482 862 894 63 168 105 412 105 618 0 225 -33 424 -129
763 -21 77 -36 143 -32 147 3 3 35 18 71 31 36 14 141 57 234 96 94 39 172 69
174 67 2 -2 -12 -24 -30 -48 -104 -136 -146 -367 -135 -743 6 -211 25 -326 63
-392 65 -111 167 -121 352 -32 131 63 225 169 273 307 36 104 64 352 39 352
-12 0 -193 -79 -203 -90 -5 -4 -13 -55 -18 -114 -13 -157 -49 -240 -119 -276
-77 -39 -118 -18 -142 74 -19 73 -18 627 1 711 29 130 85 198 163 199 57 1 75
-26 89 -137 8 -57 16 -86 23 -83 6 2 55 24 108 48 l97 43 1 55 c0 139 -38 247
-101 283 -21 12 -39 24 -39 27 0 3 62 32 138 66 l137 60 3 -649 2 -649 28 7
c15 3 64 24 110 45 l82 39 0 656 0 656 82 37 c45 20 159 74 253 118 l170 82 3
112 c3 108 2 111 -17 105 -12 -3 -107 -47 -213 -97 -396 -185 -564 -261 -973
-440 -244 -107 -322 -139 -587 -248 -143 -59 -168 -66 -172 -52 -24 79 -78
406 -101 602 -21 185 -21 619 1 771 37 267 120 500 249 693 49 74 239 271 355
369 197 166 444 307 635 362 100 28 262 52 288 42 25 -9 21 -27 -6 -27 -50 0
-126 -31 -151 -61 -48 -57 -47 -105 6 -164 118 -135 446 -156 571 -37 44 41
67 94 67 152 0 174 -216 292 -527 289 -65 -1 -129 -3 -143 -5z"/>
<path d="M7473 5837 l-103 -52 0 -662 c0 -365 2 -663 5 -663 3 0 52 23 109 52
l105 52 3 381 3 380 27 47 c28 47 72 81 119 93 53 13 54 6 59 -411 l5 -383
105 57 105 57 0 415 c0 447 -2 471 -52 510 -35 27 -83 25 -151 -7 -72 -34
-146 -103 -186 -173 l-31 -55 -3 208 c-1 114 -6 207 -10 206 -4 0 -53 -24
-109 -52z"/>
<path d="M7108 5328 l-98 -48 0 -53 c-1 -51 -1 -52 -18 -31 -43 51 -93 56
-170 18 -104 -52 -179 -155 -222 -304 -18 -61 -23 -111 -27 -266 -6 -215 3
-299 43 -382 41 -85 114 -105 210 -57 58 29 98 68 148 145 l36 55 -2 -770 -3
-770 -25 -45 c-14 -24 -40 -55 -59 -67 -41 -28 -95 -31 -107 -5 -5 9 -10 187
-12 395 -2 207 -4 377 -6 377 -12 0 -203 -95 -209 -104 -4 -6 -6 -195 -5 -421
3 -395 4 -412 24 -456 17 -36 30 -49 57 -58 48 -16 112 1 185 49 69 45 89 67
136 145 l36 60 0 -52 c0 -29 2 -53 5 -53 3 0 50 23 105 50 l100 50 0 655 0
655 70 35 70 35 0 -650 c0 -584 2 -650 16 -650 8 0 56 21 105 47 l89 47 0 48
c0 26 3 48 6 48 3 0 20 -12 37 -26 25 -21 38 -25 69 -21 84 11 193 91 247 181
73 121 112 391 92 628 -12 144 -32 217 -69 259 -77 86 -244 14 -336 -144 -16
-26 -30 -47 -32 -47 -2 0 -4 88 -4 195 l0 194 183 92 c100 50 187 95 192 99 6
4 48 27 95 51 228 116 713 379 1060 574 85 48 213 119 284 158 146 82 147 79
-24 92 -47 3 -230 20 -408 36 -178 17 -333 29 -344 27 -18 -3 -11 -12 41 -63
70 -68 131 -145 131 -167 0 -8 -8 -22 -17 -31 -27 -24 -211 -125 -633 -349
-199 -105 -915 -468 -924 -468 -3 0 -6 250 -6 555 0 305 -3 554 -7 554 -5 -1
-52 -24 -105 -51z m-135 -286 c28 -31 39 -126 34 -292 -5 -166 -16 -215 -62
-276 -31 -40 -88 -62 -112 -42 -37 30 -44 75 -44 257 2 238 19 307 88 352 36
24 75 24 96 1z m821 -1275 c38 -78 32 -443 -8 -539 -19 -43 -64 -86 -104 -98
-27 -7 -36 -5 -51 11 -26 28 -31 54 -38 214 -10 243 20 379 96 431 50 34 81
29 105 -19z"/>
<path d="M3597 5255 c-730 -89 -1430 -521 -1844 -1140 -92 -138 -108 -165
-177 -302 -183 -363 -270 -730 -269 -1133 0 -180 7 -262 39 -443 14 -75 19
-87 36 -87 33 0 222 41 231 50 5 4 2 50 -7 102 -52 302 -35 667 43 975 61 238
191 536 323 741 402 622 1058 1031 1748 1088 88 8 107 -5 38 -25 -52 -16 -111
-53 -132 -83 -27 -38 -21 -102 14 -141 102 -117 410 -123 571 -11 59 41 99
107 99 165 0 62 -11 89 -56 139 -45 50 -111 85 -196 105 -78 18 -309 18 -461
0z"/>
<path d="M5955 5121 c-82 -37 -223 -98 -312 -136 l-163 -70 0 -662 c0 -365 3
-663 6 -663 3 0 55 21 115 47 l109 47 2 291 3 290 185 81 185 81 3 106 c2 75
-1 107 -9 107 -6 0 -72 -28 -147 -61 -76 -34 -156 -70 -179 -80 l-43 -18 0
157 0 157 63 27 c260 113 323 141 330 147 4 4 6 55 5 113 l-3 105 -150 -66z"/>
<path d="M6308 4952 l-98 -45 0 -109 c0 -59 1 -108 3 -108 5 0 191 85 205 93
8 6 12 40 12 113 0 77 -3 104 -12 103 -7 0 -57 -21 -110 -47z"/>
<path d="M6313 4610 l-103 -49 0 -326 c0 -258 3 -326 13 -322 6 3 56 24 110
48 l97 42 0 329 c0 180 -3 328 -7 328 -5 -1 -54 -23 -110 -50z"/>
<path d="M1185 2857 c-310 -124 -429 -178 -600 -270 -295 -160 -476 -333 -451
-431 3 -13 20 -33 38 -44 l32 -20 65 58 c145 127 450 294 788 429 l182 73 3
110 c2 60 1 111 -2 113 -3 1 -27 -7 -55 -18z"/>
</g>
</svg>
